REM MD5 307de9101cd58a955be517f2ac8c3a3a
FILE "Euro Demo 02 (Europe).bin" BINARY
  TRACK 01 MODE2/2352
    INDEX 01 00:00:00
  TRACK 02 AUDIO
    INDEX 00 20:44:57
    INDEX 01 20:46:57
  TRACK 03 AUDIO
    INDEX 00 22:31:43
    INDEX 01 22:33:43
  TRACK 04 AUDIO
    INDEX 00 23:31:39
    INDEX 01 23:33:39
  TRACK 05 AUDIO
    INDEX 00 24:40:72
    INDEX 01 24:42:72
  TRACK 06 AUDIO
    INDEX 00 25:47:70
    INDEX 01 25:49:70
REM LEADOUT 25:55:15
